<mxfile host="app.diagrams.net" modified="2021-11-09T08:35:39.534Z" agent="5.0 (Macintosh; Intel Mac OS X 11_2_1) AppleWebKit/537.36 (KHTML, like Gecko) Chrome/89.0.4389.90 Safari/537.36" etag="c18F4nARfQPcQvDnNz6p" version="15.7.0" type="github">
  <diagram id="rLuyQkyRNVA7PjmHLWfP" name="Page-1">
    <mxGraphModel dx="1232" dy="809" grid="1" gridSize="10" guides="1" tooltips="1" connect="1" arrows="1" fold="1" page="1" pageScale="1" pageWidth="827" pageHeight="1169" math="0" shadow="0">
      <root>
        <mxCell id="0" />
        <mxCell id="1" parent="0" />
        <mxCell id="c-ABXW_W6YDXH90Z_Zqb-7" style="edgeStyle=orthogonalEdgeStyle;rounded=0;orthogonalLoop=1;jettySize=auto;html=1;exitX=1;exitY=0.5;exitDx=0;exitDy=0;entryX=0;entryY=0.5;entryDx=0;entryDy=0;" edge="1" parent="1" source="c-ABXW_W6YDXH90Z_Zqb-1" target="c-ABXW_W6YDXH90Z_Zqb-2">
          <mxGeometry relative="1" as="geometry" />
        </mxCell>
        <mxCell id="c-ABXW_W6YDXH90Z_Zqb-8" style="edgeStyle=orthogonalEdgeStyle;rounded=0;orthogonalLoop=1;jettySize=auto;html=1;exitX=1;exitY=0.5;exitDx=0;exitDy=0;entryX=0;entryY=0.5;entryDx=0;entryDy=0;" edge="1" parent="1" source="c-ABXW_W6YDXH90Z_Zqb-1" target="c-ABXW_W6YDXH90Z_Zqb-6">
          <mxGeometry relative="1" as="geometry" />
        </mxCell>
        <mxCell id="c-ABXW_W6YDXH90Z_Zqb-9" style="edgeStyle=orthogonalEdgeStyle;rounded=0;orthogonalLoop=1;jettySize=auto;html=1;exitX=1;exitY=0.5;exitDx=0;exitDy=0;entryX=0;entryY=0.5;entryDx=0;entryDy=0;" edge="1" parent="1" source="c-ABXW_W6YDXH90Z_Zqb-1" target="c-ABXW_W6YDXH90Z_Zqb-5">
          <mxGeometry relative="1" as="geometry" />
        </mxCell>
        <mxCell id="c-ABXW_W6YDXH90Z_Zqb-10" style="edgeStyle=orthogonalEdgeStyle;rounded=0;orthogonalLoop=1;jettySize=auto;html=1;exitX=1;exitY=0.5;exitDx=0;exitDy=0;entryX=0;entryY=0.5;entryDx=0;entryDy=0;" edge="1" parent="1" source="c-ABXW_W6YDXH90Z_Zqb-1" target="c-ABXW_W6YDXH90Z_Zqb-4">
          <mxGeometry relative="1" as="geometry" />
        </mxCell>
        <mxCell id="c-ABXW_W6YDXH90Z_Zqb-1" value="SHDR_DSP_SCHEDULE_yyyyMMdd" style="rounded=0;whiteSpace=wrap;html=1;" vertex="1" parent="1">
          <mxGeometry x="30" y="270" width="210" height="30" as="geometry" />
        </mxCell>
        <mxCell id="c-ABXW_W6YDXH90Z_Zqb-12" value="" style="edgeStyle=orthogonalEdgeStyle;rounded=0;orthogonalLoop=1;jettySize=auto;html=1;" edge="1" parent="1" source="c-ABXW_W6YDXH90Z_Zqb-2" target="c-ABXW_W6YDXH90Z_Zqb-11">
          <mxGeometry relative="1" as="geometry" />
        </mxCell>
        <mxCell id="c-ABXW_W6YDXH90Z_Zqb-2" value="attBuzzLightyearPlanetRescue" style="rounded=0;whiteSpace=wrap;html=1;" vertex="1" parent="1">
          <mxGeometry x="350" y="120" width="200" height="30" as="geometry" />
        </mxCell>
        <mxCell id="c-ABXW_W6YDXH90Z_Zqb-3" style="edgeStyle=orthogonalEdgeStyle;rounded=0;orthogonalLoop=1;jettySize=auto;html=1;exitX=0.5;exitY=1;exitDx=0;exitDy=0;" edge="1" parent="1" source="c-ABXW_W6YDXH90Z_Zqb-2" target="c-ABXW_W6YDXH90Z_Zqb-2">
          <mxGeometry relative="1" as="geometry" />
        </mxCell>
        <mxCell id="c-ABXW_W6YDXH90Z_Zqb-21" style="edgeStyle=orthogonalEdgeStyle;rounded=0;orthogonalLoop=1;jettySize=auto;html=1;exitX=1;exitY=0.5;exitDx=0;exitDy=0;" edge="1" parent="1" source="c-ABXW_W6YDXH90Z_Zqb-4" target="c-ABXW_W6YDXH90Z_Zqb-15">
          <mxGeometry relative="1" as="geometry" />
        </mxCell>
        <mxCell id="c-ABXW_W6YDXH90Z_Zqb-4" value="attSevenDwarfsMineTrain" style="rounded=0;whiteSpace=wrap;html=1;" vertex="1" parent="1">
          <mxGeometry x="350" y="420" width="200" height="30" as="geometry" />
        </mxCell>
        <mxCell id="c-ABXW_W6YDXH90Z_Zqb-20" style="edgeStyle=orthogonalEdgeStyle;rounded=0;orthogonalLoop=1;jettySize=auto;html=1;exitX=1;exitY=0.5;exitDx=0;exitDy=0;" edge="1" parent="1" source="c-ABXW_W6YDXH90Z_Zqb-5" target="c-ABXW_W6YDXH90Z_Zqb-16">
          <mxGeometry relative="1" as="geometry" />
        </mxCell>
        <mxCell id="c-ABXW_W6YDXH90Z_Zqb-5" value="attRoaringRapids" style="rounded=0;whiteSpace=wrap;html=1;" vertex="1" parent="1">
          <mxGeometry x="350" y="320" width="200" height="30" as="geometry" />
        </mxCell>
        <mxCell id="c-ABXW_W6YDXH90Z_Zqb-19" style="edgeStyle=orthogonalEdgeStyle;rounded=0;orthogonalLoop=1;jettySize=auto;html=1;exitX=1;exitY=0.5;exitDx=0;exitDy=0;" edge="1" parent="1" source="c-ABXW_W6YDXH90Z_Zqb-6" target="c-ABXW_W6YDXH90Z_Zqb-17">
          <mxGeometry relative="1" as="geometry" />
        </mxCell>
        <mxCell id="c-ABXW_W6YDXH90Z_Zqb-6" value="attPeterPansFlight" style="rounded=0;whiteSpace=wrap;html=1;" vertex="1" parent="1">
          <mxGeometry x="350" y="220" width="200" height="30" as="geometry" />
        </mxCell>
        <mxCell id="c-ABXW_W6YDXH90Z_Zqb-11" value="object(setting)" style="rounded=0;whiteSpace=wrap;html=1;" vertex="1" parent="1">
          <mxGeometry x="610" y="120" width="200" height="30" as="geometry" />
        </mxCell>
        <mxCell id="c-ABXW_W6YDXH90Z_Zqb-15" value="object" style="rounded=0;whiteSpace=wrap;html=1;" vertex="1" parent="1">
          <mxGeometry x="610" y="420" width="200" height="30" as="geometry" />
        </mxCell>
        <mxCell id="c-ABXW_W6YDXH90Z_Zqb-16" value="object" style="rounded=0;whiteSpace=wrap;html=1;" vertex="1" parent="1">
          <mxGeometry x="610" y="320" width="200" height="30" as="geometry" />
        </mxCell>
        <mxCell id="c-ABXW_W6YDXH90Z_Zqb-17" value="object" style="rounded=0;whiteSpace=wrap;html=1;" vertex="1" parent="1">
          <mxGeometry x="610" y="220" width="200" height="30" as="geometry" />
        </mxCell>
        <mxCell id="c-ABXW_W6YDXH90Z_Zqb-22" value="expire=effectDay+1" style="text;html=1;strokeColor=none;fillColor=none;align=center;verticalAlign=middle;whiteSpace=wrap;rounded=0;" vertex="1" parent="1">
          <mxGeometry x="80" y="320" width="60" height="30" as="geometry" />
        </mxCell>
        <mxCell id="c-ABXW_W6YDXH90Z_Zqb-25" value="&lt;h1&gt;setting-sample&lt;/h1&gt;&lt;blockquote style=&quot;margin: 0 0 0 40px ; border: none ; padding: 0px&quot;&gt;&lt;div style=&quot;background-color: rgb(255 , 255 , 254) ; line-height: 18px&quot;&gt;&lt;div&gt;    {&lt;/div&gt;&lt;/div&gt;&lt;div style=&quot;background-color: rgb(255 , 255 , 254) ; line-height: 18px&quot;&gt;&lt;div&gt;&lt;span style=&quot;color: #a31515&quot;&gt;&quot;scheduleSettingId&quot;&lt;/span&gt;: &lt;span style=&quot;color: #098658&quot;&gt;1&lt;/span&gt;,&lt;/div&gt;&lt;/div&gt;&lt;div style=&quot;background-color: rgb(255 , 255 , 254) ; line-height: 18px&quot;&gt;&lt;div&gt;&lt;span style=&quot;color: #a31515&quot;&gt;&quot;effectDate&quot;&lt;/span&gt;: &lt;span style=&quot;color: #098658&quot;&gt;1631289600000&lt;/span&gt;,&lt;/div&gt;&lt;/div&gt;&lt;div style=&quot;background-color: rgb(255 , 255 , 254) ; line-height: 18px&quot;&gt;&lt;div&gt;&lt;span style=&quot;color: #a31515&quot;&gt;&quot;effectStartTime&quot;&lt;/span&gt;: &lt;span style=&quot;color: #098658&quot;&gt;1631327400000&lt;/span&gt;,&lt;/div&gt;&lt;/div&gt;&lt;div style=&quot;background-color: rgb(255 , 255 , 254) ; line-height: 18px&quot;&gt;&lt;div&gt;&lt;span style=&quot;color: #a31515&quot;&gt;&quot;effectEndTime&quot;&lt;/span&gt;: &lt;span style=&quot;color: #098658&quot;&gt;1631345400000&lt;/span&gt;,&lt;/div&gt;&lt;/div&gt;&lt;div style=&quot;background-color: rgb(255 , 255 , 254) ; line-height: 18px&quot;&gt;&lt;div&gt;&lt;span style=&quot;color: #a31515&quot;&gt;&quot;facilityId&quot;&lt;/span&gt;: &lt;span style=&quot;color: #0451a5&quot;&gt;&quot;entAvengersTrainingInitiative&quot;&lt;/span&gt;,&lt;/div&gt;&lt;/div&gt;&lt;div style=&quot;background-color: rgb(255 , 255 , 254) ; line-height: 18px&quot;&gt;&lt;div&gt;&lt;span style=&quot;color: #a31515&quot;&gt;&quot;facilityName&quot;&lt;/span&gt;: &lt;span style=&quot;color: #0451a5&quot;&gt;&quot;Avengers Training Initiative&quot;&lt;/span&gt;&lt;/div&gt;&lt;/div&gt;&lt;div style=&quot;background-color: rgb(255 , 255 , 254) ; line-height: 18px&quot;&gt;&lt;div&gt;    }&lt;/div&gt;&lt;/div&gt;&lt;/blockquote&gt;&lt;div style=&quot;background-color: rgb(255 , 255 , 254) ; line-height: 18px&quot;&gt;&lt;br&gt;&lt;/div&gt;" style="text;html=1;strokeColor=none;fillColor=none;spacing=5;spacingTop=-20;whiteSpace=wrap;overflow=hidden;rounded=0;" vertex="1" parent="1">
          <mxGeometry x="120" y="540" width="570" height="440" as="geometry" />
        </mxCell>
      </root>
    </mxGraphModel>
  </diagram>
</mxfile>
